<mxfile host="Electron" modified="2024-04-05T11:04:47.961Z" agent="Mozilla/5.0 (Macintosh; Intel Mac OS X 10_15_7) AppleWebKit/537.36 (KHTML, like Gecko) draw.io/24.1.0 Chrome/120.0.6099.109 Electron/28.1.0 Safari/537.36" etag="QcxGP1WIN9dkzrU7_DJ0" version="24.1.0" type="device">
  <diagram name="Page-1" id="2YBvvXClWsGukQMizWep">
    <mxGraphModel dx="855" dy="619" grid="1" gridSize="10" guides="1" tooltips="1" connect="1" arrows="1" fold="1" page="1" pageScale="1" pageWidth="850" pageHeight="1100" math="0" shadow="0">
      <root>
        <mxCell id="0" />
        <mxCell id="1" parent="0" />
        <mxCell id="aM9ryv3xv72pqoxQDRHE-1" value=":Object" style="shape=umlLifeline;perimeter=lifelinePerimeter;whiteSpace=wrap;html=1;container=0;dropTarget=0;collapsible=0;recursiveResize=0;outlineConnect=0;portConstraint=eastwest;newEdgeStyle={&quot;edgeStyle&quot;:&quot;elbowEdgeStyle&quot;,&quot;elbow&quot;:&quot;vertical&quot;,&quot;curved&quot;:0,&quot;rounded&quot;:0};" parent="1" vertex="1">
          <mxGeometry x="1330" y="660" width="100" height="300" as="geometry" />
        </mxCell>
        <mxCell id="aM9ryv3xv72pqoxQDRHE-2" value="" style="html=1;points=[];perimeter=orthogonalPerimeter;outlineConnect=0;targetShapes=umlLifeline;portConstraint=eastwest;newEdgeStyle={&quot;edgeStyle&quot;:&quot;elbowEdgeStyle&quot;,&quot;elbow&quot;:&quot;vertical&quot;,&quot;curved&quot;:0,&quot;rounded&quot;:0};" parent="aM9ryv3xv72pqoxQDRHE-1" vertex="1">
          <mxGeometry x="45" y="70" width="10" height="190" as="geometry" />
        </mxCell>
        <mxCell id="aM9ryv3xv72pqoxQDRHE-3" value="dispatch" style="html=1;verticalAlign=bottom;startArrow=oval;endArrow=block;startSize=8;edgeStyle=elbowEdgeStyle;elbow=vertical;curved=0;rounded=0;" parent="aM9ryv3xv72pqoxQDRHE-1" target="aM9ryv3xv72pqoxQDRHE-2" edge="1">
          <mxGeometry relative="1" as="geometry">
            <mxPoint x="-15" y="70" as="sourcePoint" />
          </mxGeometry>
        </mxCell>
        <mxCell id="aM9ryv3xv72pqoxQDRHE-4" value="" style="html=1;points=[];perimeter=orthogonalPerimeter;outlineConnect=0;targetShapes=umlLifeline;portConstraint=eastwest;newEdgeStyle={&quot;edgeStyle&quot;:&quot;elbowEdgeStyle&quot;,&quot;elbow&quot;:&quot;vertical&quot;,&quot;curved&quot;:0,&quot;rounded&quot;:0};" parent="aM9ryv3xv72pqoxQDRHE-1" vertex="1">
          <mxGeometry x="50" y="120" width="10" height="80" as="geometry" />
        </mxCell>
        <mxCell id="aM9ryv3xv72pqoxQDRHE-5" value=":Object" style="shape=umlLifeline;perimeter=lifelinePerimeter;whiteSpace=wrap;html=1;container=0;dropTarget=0;collapsible=0;recursiveResize=0;outlineConnect=0;portConstraint=eastwest;newEdgeStyle={&quot;edgeStyle&quot;:&quot;elbowEdgeStyle&quot;,&quot;elbow&quot;:&quot;vertical&quot;,&quot;curved&quot;:0,&quot;rounded&quot;:0};" parent="1" vertex="1">
          <mxGeometry x="1510" y="660" width="100" height="300" as="geometry" />
        </mxCell>
        <mxCell id="aM9ryv3xv72pqoxQDRHE-6" value="" style="html=1;points=[];perimeter=orthogonalPerimeter;outlineConnect=0;targetShapes=umlLifeline;portConstraint=eastwest;newEdgeStyle={&quot;edgeStyle&quot;:&quot;elbowEdgeStyle&quot;,&quot;elbow&quot;:&quot;vertical&quot;,&quot;curved&quot;:0,&quot;rounded&quot;:0};" parent="aM9ryv3xv72pqoxQDRHE-5" vertex="1">
          <mxGeometry x="45" y="80" width="10" height="170" as="geometry" />
        </mxCell>
        <mxCell id="aM9ryv3xv72pqoxQDRHE-7" value="dispatch" style="html=1;verticalAlign=bottom;endArrow=block;edgeStyle=elbowEdgeStyle;elbow=vertical;curved=0;rounded=0;" parent="1" source="aM9ryv3xv72pqoxQDRHE-2" target="aM9ryv3xv72pqoxQDRHE-6" edge="1">
          <mxGeometry relative="1" as="geometry">
            <mxPoint x="1485" y="750" as="sourcePoint" />
            <Array as="points">
              <mxPoint x="1470" y="740" />
            </Array>
          </mxGeometry>
        </mxCell>
        <mxCell id="aM9ryv3xv72pqoxQDRHE-8" value="return" style="html=1;verticalAlign=bottom;endArrow=open;dashed=1;endSize=8;edgeStyle=elbowEdgeStyle;elbow=vertical;curved=0;rounded=0;" parent="1" source="aM9ryv3xv72pqoxQDRHE-6" target="aM9ryv3xv72pqoxQDRHE-2" edge="1">
          <mxGeometry relative="1" as="geometry">
            <mxPoint x="1485" y="825" as="targetPoint" />
            <Array as="points">
              <mxPoint x="1480" y="900" />
            </Array>
          </mxGeometry>
        </mxCell>
        <mxCell id="aM9ryv3xv72pqoxQDRHE-9" value="callback" style="html=1;verticalAlign=bottom;endArrow=block;edgeStyle=elbowEdgeStyle;elbow=vertical;curved=0;rounded=0;" parent="1" source="aM9ryv3xv72pqoxQDRHE-6" target="aM9ryv3xv72pqoxQDRHE-4" edge="1">
          <mxGeometry relative="1" as="geometry">
            <mxPoint x="1465" y="780" as="sourcePoint" />
            <Array as="points">
              <mxPoint x="1480" y="780" />
            </Array>
          </mxGeometry>
        </mxCell>
        <mxCell id="aM9ryv3xv72pqoxQDRHE-10" value="return" style="html=1;verticalAlign=bottom;endArrow=open;dashed=1;endSize=8;edgeStyle=elbowEdgeStyle;elbow=vertical;curved=0;rounded=0;" parent="1" source="aM9ryv3xv72pqoxQDRHE-4" target="aM9ryv3xv72pqoxQDRHE-6" edge="1">
          <mxGeometry relative="1" as="geometry">
            <mxPoint x="1465" y="855" as="targetPoint" />
            <Array as="points">
              <mxPoint x="1470" y="850" />
            </Array>
          </mxGeometry>
        </mxCell>
        <mxCell id="ba8jQTyRNlUtfquAFpFR-19" value=":Scheduler" style="shape=umlLifeline;perimeter=lifelinePerimeter;whiteSpace=wrap;html=1;container=0;dropTarget=0;collapsible=0;recursiveResize=0;outlineConnect=0;portConstraint=eastwest;newEdgeStyle={&quot;edgeStyle&quot;:&quot;elbowEdgeStyle&quot;,&quot;elbow&quot;:&quot;vertical&quot;,&quot;curved&quot;:0,&quot;rounded&quot;:0};" parent="1" vertex="1">
          <mxGeometry x="80" y="80" width="100" height="520" as="geometry" />
        </mxCell>
        <mxCell id="ba8jQTyRNlUtfquAFpFR-20" value="" style="html=1;points=[];perimeter=orthogonalPerimeter;outlineConnect=0;targetShapes=umlLifeline;portConstraint=eastwest;newEdgeStyle={&quot;edgeStyle&quot;:&quot;elbowEdgeStyle&quot;,&quot;elbow&quot;:&quot;vertical&quot;,&quot;curved&quot;:0,&quot;rounded&quot;:0};" parent="ba8jQTyRNlUtfquAFpFR-19" vertex="1">
          <mxGeometry x="45" y="70" width="10" height="390" as="geometry" />
        </mxCell>
        <mxCell id="ba8jQTyRNlUtfquAFpFR-21" value="run" style="html=1;verticalAlign=bottom;startArrow=oval;endArrow=block;startSize=8;edgeStyle=elbowEdgeStyle;elbow=vertical;curved=0;rounded=0;" parent="ba8jQTyRNlUtfquAFpFR-19" target="ba8jQTyRNlUtfquAFpFR-20" edge="1">
          <mxGeometry relative="1" as="geometry">
            <mxPoint x="-15" y="70" as="sourcePoint" />
          </mxGeometry>
        </mxCell>
        <mxCell id="ba8jQTyRNlUtfquAFpFR-22" value=":Task" style="shape=umlLifeline;perimeter=lifelinePerimeter;whiteSpace=wrap;html=1;container=0;dropTarget=0;collapsible=0;recursiveResize=0;outlineConnect=0;portConstraint=eastwest;newEdgeStyle={&quot;edgeStyle&quot;:&quot;elbowEdgeStyle&quot;,&quot;elbow&quot;:&quot;vertical&quot;,&quot;curved&quot;:0,&quot;rounded&quot;:0};" parent="1" vertex="1">
          <mxGeometry x="640" y="80" width="100" height="300" as="geometry" />
        </mxCell>
        <mxCell id="ba8jQTyRNlUtfquAFpFR-23" value="" style="html=1;points=[];perimeter=orthogonalPerimeter;outlineConnect=0;targetShapes=umlLifeline;portConstraint=eastwest;newEdgeStyle={&quot;edgeStyle&quot;:&quot;elbowEdgeStyle&quot;,&quot;elbow&quot;:&quot;vertical&quot;,&quot;curved&quot;:0,&quot;rounded&quot;:0};" parent="ba8jQTyRNlUtfquAFpFR-22" vertex="1">
          <mxGeometry x="45" y="260" width="10" height="30" as="geometry" />
        </mxCell>
        <mxCell id="ba8jQTyRNlUtfquAFpFR-24" value="cerate predictive model&lt;font style=&quot;font-size: 7px;&quot;&gt; (passing training data)&lt;/font&gt;" style="html=1;verticalAlign=bottom;endArrow=block;edgeStyle=elbowEdgeStyle;elbow=vertical;curved=0;rounded=0;movable=1;resizable=1;rotatable=1;deletable=1;editable=1;locked=0;connectable=1;" parent="1" target="ba8jQTyRNlUtfquAFpFR-26" edge="1">
          <mxGeometry x="0.2683" relative="1" as="geometry">
            <mxPoint x="140" y="280" as="sourcePoint" />
            <Array as="points" />
            <mxPoint x="540" y="280" as="targetPoint" />
            <mxPoint as="offset" />
          </mxGeometry>
        </mxCell>
        <mxCell id="ba8jQTyRNlUtfquAFpFR-25" value=":PredictiveModel" style="shape=umlLifeline;perimeter=lifelinePerimeter;whiteSpace=wrap;html=1;container=0;dropTarget=0;collapsible=0;recursiveResize=0;outlineConnect=0;portConstraint=eastwest;newEdgeStyle={&quot;edgeStyle&quot;:&quot;elbowEdgeStyle&quot;,&quot;elbow&quot;:&quot;vertical&quot;,&quot;curved&quot;:0,&quot;rounded&quot;:0};" parent="1" vertex="1">
          <mxGeometry x="500" y="80" width="100" height="300" as="geometry" />
        </mxCell>
        <mxCell id="ba8jQTyRNlUtfquAFpFR-26" value="" style="html=1;points=[];perimeter=orthogonalPerimeter;outlineConnect=0;targetShapes=umlLifeline;portConstraint=eastwest;newEdgeStyle={&quot;edgeStyle&quot;:&quot;elbowEdgeStyle&quot;,&quot;elbow&quot;:&quot;vertical&quot;,&quot;curved&quot;:0,&quot;rounded&quot;:0};" parent="ba8jQTyRNlUtfquAFpFR-25" vertex="1">
          <mxGeometry x="45" y="200" width="10" height="30" as="geometry" />
        </mxCell>
        <mxCell id="ba8jQTyRNlUtfquAFpFR-27" value="return predictor" style="html=1;verticalAlign=bottom;endArrow=block;edgeStyle=elbowEdgeStyle;elbow=vertical;curved=0;rounded=0;" parent="1" target="ba8jQTyRNlUtfquAFpFR-20" edge="1">
          <mxGeometry x="0.6514" relative="1" as="geometry">
            <mxPoint x="552.25" y="310" as="sourcePoint" />
            <Array as="points">
              <mxPoint x="227.75" y="310" />
            </Array>
            <mxPoint x="137.75" y="310" as="targetPoint" />
            <mxPoint as="offset" />
          </mxGeometry>
        </mxCell>
        <mxCell id="ba8jQTyRNlUtfquAFpFR-28" value=":PatientProvider" style="shape=umlLifeline;perimeter=lifelinePerimeter;whiteSpace=wrap;html=1;container=0;dropTarget=0;collapsible=0;recursiveResize=0;outlineConnect=0;portConstraint=eastwest;newEdgeStyle={&quot;edgeStyle&quot;:&quot;elbowEdgeStyle&quot;,&quot;elbow&quot;:&quot;vertical&quot;,&quot;curved&quot;:0,&quot;rounded&quot;:0};" parent="1" vertex="1">
          <mxGeometry x="220" y="80" width="100" height="300" as="geometry" />
        </mxCell>
        <mxCell id="ba8jQTyRNlUtfquAFpFR-29" value="" style="html=1;points=[];perimeter=orthogonalPerimeter;outlineConnect=0;targetShapes=umlLifeline;portConstraint=eastwest;newEdgeStyle={&quot;edgeStyle&quot;:&quot;elbowEdgeStyle&quot;,&quot;elbow&quot;:&quot;vertical&quot;,&quot;curved&quot;:0,&quot;rounded&quot;:0};" parent="ba8jQTyRNlUtfquAFpFR-28" vertex="1">
          <mxGeometry x="45" y="80" width="10" height="30" as="geometry" />
        </mxCell>
        <mxCell id="ba8jQTyRNlUtfquAFpFR-30" value="create patient provider" style="html=1;verticalAlign=bottom;endArrow=block;edgeStyle=elbowEdgeStyle;elbow=vertical;curved=0;rounded=0;" parent="1" source="ba8jQTyRNlUtfquAFpFR-20" edge="1">
          <mxGeometry x="-0.0857" relative="1" as="geometry">
            <mxPoint x="133" y="160" as="sourcePoint" />
            <Array as="points">
              <mxPoint x="213" y="160" />
            </Array>
            <mxPoint x="270" y="160" as="targetPoint" />
            <mxPoint as="offset" />
          </mxGeometry>
        </mxCell>
        <mxCell id="ba8jQTyRNlUtfquAFpFR-31" value=":Master" style="shape=umlLifeline;perimeter=lifelinePerimeter;whiteSpace=wrap;html=1;container=0;dropTarget=0;collapsible=0;recursiveResize=0;outlineConnect=0;portConstraint=eastwest;newEdgeStyle={&quot;edgeStyle&quot;:&quot;elbowEdgeStyle&quot;,&quot;elbow&quot;:&quot;vertical&quot;,&quot;curved&quot;:0,&quot;rounded&quot;:0};" parent="1" vertex="1">
          <mxGeometry x="360" y="80" width="100" height="300" as="geometry" />
        </mxCell>
        <mxCell id="ba8jQTyRNlUtfquAFpFR-32" value="" style="html=1;points=[];perimeter=orthogonalPerimeter;outlineConnect=0;targetShapes=umlLifeline;portConstraint=eastwest;newEdgeStyle={&quot;edgeStyle&quot;:&quot;elbowEdgeStyle&quot;,&quot;elbow&quot;:&quot;vertical&quot;,&quot;curved&quot;:0,&quot;rounded&quot;:0};" parent="ba8jQTyRNlUtfquAFpFR-31" vertex="1">
          <mxGeometry x="45" y="140" width="10" height="30" as="geometry" />
        </mxCell>
        <mxCell id="ba8jQTyRNlUtfquAFpFR-33" value="create master" style="html=1;verticalAlign=bottom;endArrow=block;edgeStyle=elbowEdgeStyle;elbow=vertical;curved=0;rounded=0;" parent="1" target="ba8jQTyRNlUtfquAFpFR-31" edge="1">
          <mxGeometry x="-0.0364" relative="1" as="geometry">
            <mxPoint x="135" y="220" as="sourcePoint" />
            <Array as="points">
              <mxPoint x="220" y="220" />
            </Array>
            <mxPoint x="270" y="220" as="targetPoint" />
            <mxPoint as="offset" />
          </mxGeometry>
        </mxCell>
        <mxCell id="ba8jQTyRNlUtfquAFpFR-34" value="" style="endArrow=block;html=1;rounded=0;endFill=1;" parent="1" source="ba8jQTyRNlUtfquAFpFR-19" target="ba8jQTyRNlUtfquAFpFR-22" edge="1">
          <mxGeometry width="50" height="50" relative="1" as="geometry">
            <mxPoint x="140" y="340" as="sourcePoint" />
            <mxPoint x="215" y="339.71" as="targetPoint" />
          </mxGeometry>
        </mxCell>
        <mxCell id="ba8jQTyRNlUtfquAFpFR-35" value="create task &lt;font style=&quot;font-size: 7px;&quot;&gt;(passing problem description and patients to be scheduled)&lt;/font&gt;" style="edgeLabel;html=1;align=center;verticalAlign=middle;resizable=0;points=[];" parent="ba8jQTyRNlUtfquAFpFR-34" vertex="1" connectable="0">
          <mxGeometry x="-0.0603" relative="1" as="geometry">
            <mxPoint x="4" y="-10" as="offset" />
          </mxGeometry>
        </mxCell>
        <mxCell id="ba8jQTyRNlUtfquAFpFR-36" value="" style="endArrow=block;html=1;rounded=0;endFill=1;" parent="1" source="ba8jQTyRNlUtfquAFpFR-29" edge="1">
          <mxGeometry width="50" height="50" relative="1" as="geometry">
            <mxPoint x="270" y="190" as="sourcePoint" />
            <mxPoint x="136" y="190.0000000000001" as="targetPoint" />
          </mxGeometry>
        </mxCell>
        <mxCell id="ba8jQTyRNlUtfquAFpFR-37" value="generate patients&lt;br&gt;&lt;font style=&quot;font-size: 7px;&quot;&gt;(to be scheduled and training)&lt;/font&gt;" style="edgeLabel;html=1;align=center;verticalAlign=middle;resizable=0;points=[];spacing=0;spacingBottom=26;" parent="ba8jQTyRNlUtfquAFpFR-36" vertex="1" connectable="0">
          <mxGeometry x="0.2008" y="1" relative="1" as="geometry">
            <mxPoint x="18" y="-1" as="offset" />
          </mxGeometry>
        </mxCell>
        <mxCell id="ba8jQTyRNlUtfquAFpFR-40" value=":Optimizer" style="shape=umlLifeline;perimeter=lifelinePerimeter;whiteSpace=wrap;html=1;container=0;dropTarget=0;collapsible=0;recursiveResize=0;outlineConnect=0;portConstraint=eastwest;newEdgeStyle={&quot;edgeStyle&quot;:&quot;elbowEdgeStyle&quot;,&quot;elbow&quot;:&quot;vertical&quot;,&quot;curved&quot;:0,&quot;rounded&quot;:0};" parent="1" vertex="1">
          <mxGeometry x="780" y="80" width="100" height="450" as="geometry" />
        </mxCell>
        <mxCell id="ba8jQTyRNlUtfquAFpFR-41" value="" style="html=1;points=[];perimeter=orthogonalPerimeter;outlineConnect=0;targetShapes=umlLifeline;portConstraint=eastwest;newEdgeStyle={&quot;edgeStyle&quot;:&quot;elbowEdgeStyle&quot;,&quot;elbow&quot;:&quot;vertical&quot;,&quot;curved&quot;:0,&quot;rounded&quot;:0};" parent="ba8jQTyRNlUtfquAFpFR-40" vertex="1">
          <mxGeometry x="45" y="330" width="10" height="50" as="geometry" />
        </mxCell>
        <mxCell id="ba8jQTyRNlUtfquAFpFR-42" value="return master scheduling" style="html=1;verticalAlign=bottom;endArrow=block;edgeStyle=elbowEdgeStyle;elbow=vertical;curved=0;rounded=0;strokeColor=default;" parent="1" edge="1">
          <mxGeometry x="-0.0364" relative="1" as="geometry">
            <mxPoint x="410" y="250" as="sourcePoint" />
            <Array as="points">
              <mxPoint x="222.5" y="250" />
            </Array>
            <mxPoint x="137.5" y="250" as="targetPoint" />
            <mxPoint as="offset" />
          </mxGeometry>
        </mxCell>
        <mxCell id="ba8jQTyRNlUtfquAFpFR-44" value="return filled task" style="html=1;verticalAlign=bottom;endArrow=block;edgeStyle=elbowEdgeStyle;elbow=vertical;curved=0;rounded=0;" parent="1" target="ba8jQTyRNlUtfquAFpFR-19" edge="1">
          <mxGeometry x="0.6514" relative="1" as="geometry">
            <mxPoint x="687.25" y="370" as="sourcePoint" />
            <Array as="points">
              <mxPoint x="362.75" y="370" />
            </Array>
            <mxPoint x="270" y="370" as="targetPoint" />
            <mxPoint as="offset" />
          </mxGeometry>
        </mxCell>
        <mxCell id="ba8jQTyRNlUtfquAFpFR-45" value="" style="endArrow=block;html=1;rounded=0;endFill=1;" parent="1" edge="1">
          <mxGeometry width="50" height="50" relative="1" as="geometry">
            <mxPoint x="130.5" y="400" as="sourcePoint" />
            <mxPoint x="829.5000000000002" y="400" as="targetPoint" />
          </mxGeometry>
        </mxCell>
        <mxCell id="ba8jQTyRNlUtfquAFpFR-46" value="create optimizer&amp;nbsp;&lt;font style=&quot;font-size: 7px;&quot;&gt;(passing task and predictor)&lt;/font&gt;" style="edgeLabel;html=1;align=center;verticalAlign=middle;resizable=0;points=[];" parent="ba8jQTyRNlUtfquAFpFR-45" vertex="1" connectable="0">
          <mxGeometry x="-0.0603" relative="1" as="geometry">
            <mxPoint x="4" y="-10" as="offset" />
          </mxGeometry>
        </mxCell>
      </root>
    </mxGraphModel>
  </diagram>
</mxfile>
